# xmcd CD database file
#
# Track frame offsets:
#	182
#	18865
#	40965
#	68215
#	109402
#	113425
#	137137
#	156140
#	163365
#	178895
#	204327
#
# Disc length: 2901 seconds
#
# Revision: 0
# Processed by: cddbd v1.5.1PL0 Copyright (c) Steve Scherf et al.
# Submitted via: CDex 1.51
#
DISCID=970b530b
DTITLE=Transat - Rue des orchidées
DYEAR=1900
DGENRE=Jazz
TTITLE0=B.a. basse
TTITLE1=Le livre de Samuel
TTITLE2=Granny Salomka
TTITLE3=Suite pour le monde
TTITLE4=Transit
TTITLE5=Spqr
TTITLE6=Petit-déjeuner avec Béa
TTITLE7=Inconséquence
TTITLE8=Rue des orchidées
TTITLE9=Joyaux des rues
TTITLE10=Exposition de tableaux
EXTD=
EXTT0=
EXTT1=
EXTT2=
EXTT3=
EXTT4=
EXTT5=
EXTT6=
EXTT7=
EXTT8=
EXTT9=
EXTT10=
PLAYORDER=
